<svg xmlns="http://www.w3.org/2000/svg" width="373.9019775390625" height="383.50079345703125" viewBox="-121.02143859863281 -102.91919708251953 373.9019775390625 383.50079345703125"><title>Neo4j Graph Visualization</title><desc>Created using Neo4j (http://www.neo4j.com/)</desc><g class="layer relationships"><g class="relationship" transform="translate(-51.33105826092979 157.42935775855688) rotate(328.5793573619062)"><path class="outline" fill="#A5ABB6" stroke="none" d="M 25 0.5 L 32.30360689060504 0.5 L 32.30360689060504 -0.5 L 25 -0.5 Z M 92.30360689060504 0.5 L 99.60721378121008 0.5 L 99.60721378121008 3.5 L 106.60721378121008 0 L 99.60721378121008 -3.5 L 99.60721378121008 -0.5 L 92.30360689060504 -0.5 Z"/><text text-anchor="middle" pointer-events="none" font-size="8px" fill="#000000" x="62.30360689060504" y="3" font-family="sans-serif">RESPONSIBLE</text></g><g class="relationship" transform="translate(10.068634947777337 198.69608496103834) rotate(294.8598220848444)"><path class="outline" fill="#A5ABB6" stroke="none" d="M 25 0.5 L 27.048381572367617 0.5 L 27.048381572367617 -0.5 L 25 -0.5 Z M 87.04838157236762 0.5 L 89.09676314473523 0.5 L 89.09676314473523 3.5 L 96.09676314473523 0 L 89.09676314473523 -3.5 L 89.09676314473523 -0.5 L 87.04838157236762 -0.5 Z"/><text text-anchor="middle" pointer-events="none" font-size="8px" fill="#000000" x="57.04838157236762" y="3" font-family="sans-serif">RESPONSIBLE</text></g><g class="relationship" transform="translate(84.05874364293007 210.4230865112914) rotate(259.25270420083626)"><path class="outline" fill="#A5ABB6" stroke="none" d="M 25 0.5 L 28.38695775516363 0.5 L 28.38695775516363 -0.5 L 25 -0.5 Z M 88.38695775516362 0.5 L 91.77391551032726 0.5 L 91.77391551032726 3.5 L 98.77391551032726 0 L 91.77391551032726 -3.5 L 91.77391551032726 -0.5 L 88.38695775516362 -0.5 Z"/><text text-anchor="middle" pointer-events="none" font-size="8px" fill="#000000" x="58.38695775516363" y="3" transform="rotate(180 58.38695775516363 0)" font-family="sans-serif">RESPONSIBLE</text></g><g class="relationship" transform="translate(40.39494523209086 251.58159709054624) rotate(277.20734188665466)"><path class="outline" fill="#A5ABB6" stroke="none" d="M 25 0.5 L 48.52880600333329 0.5 L 48.52880600333329 -0.5 L 25 -0.5 Z M 108.52880600333329 0.5 L 132.05761200666657 0.5 L 132.05761200666657 3.5 L 139.05761200666657 0 L 132.05761200666657 -3.5 L 132.05761200666657 -0.5 L 108.52880600333329 -0.5 Z"/><text text-anchor="middle" pointer-events="none" font-size="8px" fill="#000000" x="78.52880600333329" y="3" font-family="sans-serif">RESPONSIBLE</text></g><g class="relationship" transform="translate(171.4107943902377 192.40580042393015) rotate(223.16743094120739)"><path class="outline" fill="#A5ABB6" stroke="none" d="M 25 0.5 L 42.20574223574266 0.5 L 42.20574223574266 -0.5 L 25 -0.5 Z M 102.20574223574266 0.5 L 119.41148447148532 0.5 L 119.41148447148532 3.5 L 126.41148447148532 0 L 119.41148447148532 -3.5 L 119.41148447148532 -0.5 L 102.20574223574266 -0.5 Z"/><text text-anchor="middle" pointer-events="none" font-size="8px" fill="#000000" x="72.20574223574266" y="3" transform="rotate(180 72.20574223574266 0)" font-family="sans-serif">RESPONSIBLE</text></g><g class="relationship" transform="translate(135.81770646442166 240.70441048525907) rotate(243.76849395025238)"><path class="outline" fill="#A5ABB6" stroke="none" d="M 25 0.5 L 51.16082988042952 0.5 L 51.16082988042952 -0.5 L 25 -0.5 Z M 111.16082988042952 0.5 L 137.32165976085903 0.5 L 137.32165976085903 3.5 L 144.32165976085903 0 L 137.32165976085903 -3.5 L 137.32165976085903 -0.5 L 111.16082988042952 -0.5 Z"/><text text-anchor="middle" pointer-events="none" font-size="8px" fill="#000000" x="81.16082988042952" y="3" transform="rotate(180 81.16082988042952 0)" font-family="sans-serif">RESPONSIBLE</text></g><g class="relationship" transform="translate(167.84564095542052 126.78513535463196) rotate(199.5575940897857)"><path class="outline" fill="#A5ABB6" stroke="none" d="M 25 0.5 L 26.20558629388256 0.5 L 26.20558629388256 -0.5 L 25 -0.5 Z M 80.20558629388256 0.5 L 81.41117258776512 0.5 L 81.41117258776512 3.5 L 88.41117258776512 0 L 81.41117258776512 -3.5 L 81.41117258776512 -0.5 L 80.20558629388256 -0.5 Z"/><text text-anchor="middle" pointer-events="none" font-size="8px" fill="#000000" x="53.20558629388256" y="3" transform="rotate(180 53.20558629388256 0)" font-family="sans-serif">RESPONSI…</text></g><g class="relationship" transform="translate(163.77522034449973 -40.70377954128412) rotate(488.43748803814725)"><path class="outline" fill="#A5ABB6" stroke="none" d="M 25 0.5 L 49.17982491723457 0.5 L 49.17982491723457 -0.5 L 25 -0.5 Z M 109.17982491723457 0.5 L 133.35964983446914 0.5 L 133.35964983446914 3.5 L 140.35964983446914 0 L 133.35964983446914 -3.5 L 133.35964983446914 -0.5 L 109.17982491723457 -0.5 Z"/><text text-anchor="middle" pointer-events="none" font-size="8px" fill="#000000" x="79.17982491723457" y="3" transform="rotate(180 79.17982491723457 0)" font-family="sans-serif">RESPONSIBLE</text></g><g class="relationship" transform="translate(223.88055088184996 148.13563918781472) rotate(200.00732174196264)"><path class="outline" fill="#A5ABB6" stroke="none" d="M 25 0.5 L 53.182843471279924 0.5 L 53.182843471279924 -0.5 L 25 -0.5 Z M 113.18284347127992 0.5 L 141.36568694255985 0.5 L 141.36568694255985 3.5 L 148.36568694255985 0 L 141.36568694255985 -3.5 L 141.36568694255985 -0.5 L 113.18284347127992 -0.5 Z"/><text text-anchor="middle" pointer-events="none" font-size="8px" fill="#000000" x="83.18284347127992" y="3" transform="rotate(180 83.18284347127992 0)" font-family="sans-serif">RESPONSIBLE</text></g><g class="relationship" transform="translate(150.90749500680474 20.233220181927067) rotate(502.6682133378847)"><path class="outline" fill="#A5ABB6" stroke="none" d="M 25 0.5 L 26.04987974142066 0.5 L 26.04987974142066 -0.5 L 25 -0.5 Z M 80.04987974142065 0.5 L 81.09975948284132 0.5 L 81.09975948284132 3.5 L 88.09975948284132 0 L 81.09975948284132 -3.5 L 81.09975948284132 -0.5 L 80.04987974142065 -0.5 Z"/><text text-anchor="middle" pointer-events="none" font-size="8px" fill="#000000" x="53.04987974142066" y="3" transform="rotate(180 53.04987974142066 0)" font-family="sans-serif">RESPONSI…</text></g><g class="relationship" transform="translate(216.88384566072594 78.11341279648437) rotate(536.0713824497395)"><path class="outline" fill="#A5ABB6" stroke="none" d="M 25 0.5 L 44.6366934509695 0.5 L 44.6366934509695 -0.5 L 25 -0.5 Z M 104.6366934509695 0.5 L 124.273386901939 0.5 L 124.273386901939 3.5 L 131.273386901939 0 L 124.273386901939 -3.5 L 124.273386901939 -0.5 L 104.6366934509695 -0.5 Z"/><text text-anchor="middle" pointer-events="none" font-size="8px" fill="#000000" x="74.6366934509695" y="3" transform="rotate(180 74.6366934509695 0)" font-family="sans-serif">RESPONSIBLE</text></g><g class="relationship" transform="translate(210.7619676903687 16.233488059900257) rotate(514.1447667514601)"><path class="outline" fill="#A5ABB6" stroke="none" d="M 25 0.5 L 49.72285616257669 0.5 L 49.72285616257669 -0.5 L 25 -0.5 Z M 109.72285616257669 0.5 L 134.44571232515338 0.5 L 134.44571232515338 3.5 L 141.44571232515338 0 L 134.44571232515338 -3.5 L 134.44571232515338 -0.5 L 109.72285616257669 -0.5 Z"/><text text-anchor="middle" pointer-events="none" font-size="8px" fill="#000000" x="79.72285616257669" y="3" transform="rotate(180 79.72285616257669 0)" font-family="sans-serif">RESPONSIBLE</text></g><g class="relationship" transform="translate(17.71848471559374 -24.25149038068441) rotate(429.06406230928064)"><path class="outline" fill="#A5ABB6" stroke="none" d="M 25 0.5 L 27.032179647477015 0.5 L 27.032179647477015 -0.5 L 25 -0.5 Z M 87.03217964747702 0.5 L 89.06435929495403 0.5 L 89.06435929495403 3.5 L 96.06435929495403 0 L 89.06435929495403 -3.5 L 89.06435929495403 -0.5 L 87.03217964747702 -0.5 Z"/><text text-anchor="middle" pointer-events="none" font-size="8px" fill="#000000" x="57.032179647477015" y="3" font-family="sans-serif">RESPONSIBLE</text></g><g class="relationship" transform="translate(-46.959318317723216 217.26377483046952) rotate(310.0418805986763)"><path class="outline" fill="#A5ABB6" stroke="none" d="M 25 0.5 L 50.38702129750527 0.5 L 50.38702129750527 -0.5 L 25 -0.5 Z M 110.38702129750527 0.5 L 135.77404259501054 0.5 L 135.77404259501054 3.5 L 142.77404259501054 0 L 135.77404259501054 -3.5 L 135.77404259501054 -0.5 L 110.38702129750527 -0.5 Z"/><text text-anchor="middle" pointer-events="none" font-size="8px" fill="#000000" x="80.38702129750527" y="3" font-family="sans-serif">RESPONSIBLE</text></g><g class="relationship" transform="translate(103.935507943787 -45.051796326501886) rotate(467.7907725462446)"><path class="outline" fill="#A5ABB6" stroke="none" d="M 25 0.5 L 36.79776717727894 0.5 L 36.79776717727894 -0.5 L 25 -0.5 Z M 96.79776717727894 0.5 L 108.59553435455788 0.5 L 108.59553435455788 3.5 L 115.59553435455788 0 L 108.59553435455788 -3.5 L 108.59553435455788 -0.5 L 96.79776717727894 -0.5 Z"/><text text-anchor="middle" pointer-events="none" font-size="8px" fill="#000000" x="66.79776717727894" y="3" transform="rotate(180 66.79776717727894 0)" font-family="sans-serif">RESPONSIBLE</text></g><g class="relationship" transform="translate(51.35193908125901 -73.91919511183708) rotate(446.6150059768378)"><path class="outline" fill="#A5ABB6" stroke="none" d="M 25 0.5 L 48.01194154725653 0.5 L 48.01194154725653 -0.5 L 25 -0.5 Z M 108.01194154725653 0.5 L 131.02388309451305 0.5 L 131.02388309451305 3.5 L 138.02388309451305 0 L 131.02388309451305 -3.5 L 131.02388309451305 -0.5 L 108.01194154725653 -0.5 Z"/><text text-anchor="middle" pointer-events="none" font-size="8px" fill="#000000" x="78.01194154725653" y="3" font-family="sans-serif">RESPONSIBLE</text></g><g class="relationship" transform="translate(-41.77212233892769 18.13498573688834) rotate(394.52548113801623)"><path class="outline" fill="#A5ABB6" stroke="none" d="M 25 0.5 L 28.857696005674462 0.5 L 28.857696005674462 -0.5 L 25 -0.5 Z M 88.85769600567446 0.5 L 92.71539201134892 0.5 L 92.71539201134892 3.5 L 99.71539201134892 0 L 92.71539201134892 -3.5 L 92.71539201134892 -0.5 L 88.85769600567446 -0.5 Z"/><text text-anchor="middle" pointer-events="none" font-size="8px" fill="#000000" x="58.85769600567446" y="3" font-family="sans-serif">RESPONSIBLE</text></g><g class="relationship" transform="translate(-39.637545281503364 -41.80981802665698) rotate(412.39545418309945)"><path class="outline" fill="#A5ABB6" stroke="none" d="M 25 0.5 L 48.9433753249199 0.5 L 48.9433753249199 -0.5 L 25 -0.5 Z M 108.9433753249199 0.5 L 132.8867506498398 0.5 L 132.8867506498398 3.5 L 139.8867506498398 0 L 132.8867506498398 -3.5 L 132.8867506498398 -0.5 L 108.9433753249199 -0.5 Z"/><text text-anchor="middle" pointer-events="none" font-size="8px" fill="#000000" x="78.9433753249199" y="3" font-family="sans-serif">RESPONSIBLE</text></g><g class="relationship" transform="translate(-89.0022124423916 110.77113952208819) rotate(351.6733775511334)"><path class="outline" fill="#A5ABB6" stroke="none" d="M 25 0.5 L 42.28886271921927 0.5 L 42.28886271921927 -0.5 L 25 -0.5 Z M 102.28886271921927 0.5 L 119.57772543843853 0.5 L 119.57772543843853 3.5 L 126.57772543843853 0 L 119.57772543843853 -3.5 L 119.57772543843853 -0.5 L 102.28886271921927 -0.5 Z"/><text text-anchor="middle" pointer-events="none" font-size="8px" fill="#000000" x="72.28886271921927" y="3" font-family="sans-serif">RESPONSIBLE</text></g><g class="relationship" transform="translate(-92.0214389707058 50.85641142173713) rotate(373.9354233441564)"><path class="outline" fill="#A5ABB6" stroke="none" d="M 25 0.5 L 45.31938578001596 0.5 L 45.31938578001596 -0.5 L 25 -0.5 Z M 105.31938578001596 0.5 L 125.63877156003193 0.5 L 125.63877156003193 3.5 L 132.63877156003193 0 L 125.63877156003193 -3.5 L 125.63877156003193 -0.5 L 105.31938578001596 -0.5 Z"/><text text-anchor="middle" pointer-events="none" font-size="8px" fill="#000000" x="75.31938578001596" y="3" font-family="sans-serif">RESPONSIBLE</text></g></g><g class="layer nodes"><g class="node" transform="translate(-51.33105826092979,157.42935775855688)"><circle class="outline" cx="0" cy="0" r="25" fill="#68BDF6" stroke="#5CA8DB" stroke-width="2px"/><text text-anchor="middle" pointer-events="none" font-family="sans-serif" dy="1.5625" font-size="25" fill="#FFFFFF"/><text text-anchor="middle" pointer-events="none" y="5" font-size="10px" fill="#FFFFFF" font-family="sans-serif"> unclear</text></g><g class="node" transform="translate(60.977672657342055,88.82026449257393)"><circle class="outline" cx="0" cy="0" r="25" fill="#A5ABB6" stroke="#9AA1AC" stroke-width="2px"/><text text-anchor="middle" pointer-events="none" font-family="sans-serif" dy="1.5625" font-size="25" fill="#FFFFFF"/><text text-anchor="middle" pointer-events="none" y="5" font-size="10px" fill="#FFFFFF" font-family="sans-serif"> #CT</text></g><g class="node" transform="translate(10.068634947777337,198.69608496103834)"><circle class="outline" cx="0" cy="0" r="25" fill="#68BDF6" stroke="#5CA8DB" stroke-width="2px"/><text text-anchor="middle" pointer-events="none" font-family="sans-serif" dy="1.5625" font-size="25" fill="#FFFFFF"/><text text-anchor="middle" pointer-events="none" y="5" font-size="10px" fill="#FFFFFF" font-family="sans-serif"> unclear</text></g><g class="node" transform="translate(84.05874364293007,210.4230865112914)"><circle class="outline" cx="0" cy="0" r="25" fill="#68BDF6" stroke="#5CA8DB" stroke-width="2px"/><text text-anchor="middle" pointer-events="none" font-family="sans-serif" dy="1.5625" font-size="25" fill="#FFFFFF"/><text text-anchor="middle" pointer-events="none" y="5" font-size="10px" fill="#FFFFFF" font-family="sans-serif"> unclear</text></g><g class="node" transform="translate(40.39494523209086,251.58159709054624)"><circle class="outline" cx="0" cy="0" r="25" fill="#68BDF6" stroke="#5CA8DB" stroke-width="2px"/><text text-anchor="middle" pointer-events="none" font-family="sans-serif" dy="1.5625" font-size="25" fill="#FFFFFF"/><text text-anchor="middle" pointer-events="none" y="5" font-size="10px" fill="#FFFFFF" font-family="sans-serif"> supplied</text></g><g class="node" transform="translate(171.4107943902377,192.40580042393015)"><circle class="outline" cx="0" cy="0" r="25" fill="#68BDF6" stroke="#5CA8DB" stroke-width="2px"/><text text-anchor="middle" pointer-events="none" font-family="sans-serif" dy="1.5625" font-size="25" fill="#FFFFFF"/><text text-anchor="middle" pointer-events="none" y="5" font-size="10px" fill="#FFFFFF" font-family="sans-serif"> unclear</text></g><g class="node" transform="translate(135.81770646442166,240.70441048525907)"><circle class="outline" cx="0" cy="0" r="25" fill="#68BDF6" stroke="#5CA8DB" stroke-width="2px"/><text text-anchor="middle" pointer-events="none" font-family="sans-serif" dy="1.5625" font-size="25" fill="#FFFFFF"/><text text-anchor="middle" pointer-events="none" y="5" font-size="10px" fill="#FFFFFF" font-family="sans-serif"> unclear</text></g><g class="node" transform="translate(167.84564095542052,126.78513535463196)"><circle class="outline" cx="0" cy="0" r="25" fill="#68BDF6" stroke="#5CA8DB" stroke-width="2px"/><text text-anchor="middle" pointer-events="none" font-family="sans-serif" dy="1.5625" font-size="25" fill="#FFFFFF"/><text text-anchor="middle" pointer-events="none" y="5" font-size="10px" fill="#FFFFFF" font-family="sans-serif"> unclear</text></g><g class="node" transform="translate(163.77522034449973,-40.70377954128412)"><circle class="outline" cx="0" cy="0" r="25" fill="#68BDF6" stroke="#5CA8DB" stroke-width="2px"/><text text-anchor="middle" pointer-events="none" font-family="sans-serif" dy="1.5625" font-size="25" fill="#FFFFFF"/><text text-anchor="middle" pointer-events="none" y="5" font-size="10px" fill="#FFFFFF" font-family="sans-serif"> unclear</text></g><g class="node" transform="translate(223.88055088184996,148.13563918781472)"><circle class="outline" cx="0" cy="0" r="25" fill="#68BDF6" stroke="#5CA8DB" stroke-width="2px"/><text text-anchor="middle" pointer-events="none" font-family="sans-serif" dy="1.5625" font-size="25" fill="#FFFFFF"/><text text-anchor="middle" pointer-events="none" y="5" font-size="10px" fill="#FFFFFF" font-family="sans-serif"> unclear</text></g><g class="node" transform="translate(150.90749500680474,20.233220181927067)"><circle class="outline" cx="0" cy="0" r="25" fill="#68BDF6" stroke="#5CA8DB" stroke-width="2px"/><text text-anchor="middle" pointer-events="none" font-family="sans-serif" dy="1.5625" font-size="25" fill="#FFFFFF"/><text text-anchor="middle" pointer-events="none" y="5" font-size="10px" fill="#FFFFFF" font-family="sans-serif"> unclear</text></g><g class="node" transform="translate(216.88384566072594,78.11341279648437)"><circle class="outline" cx="0" cy="0" r="25" fill="#68BDF6" stroke="#5CA8DB" stroke-width="2px"/><text text-anchor="middle" pointer-events="none" font-family="sans-serif" dy="1.5625" font-size="25" fill="#FFFFFF"/><text text-anchor="middle" pointer-events="none" y="5" font-size="10px" fill="#FFFFFF" font-family="sans-serif"> unclear</text></g><g class="node" transform="translate(210.7619676903687,16.233488059900257)"><circle class="outline" cx="0" cy="0" r="25" fill="#68BDF6" stroke="#5CA8DB" stroke-width="2px"/><text text-anchor="middle" pointer-events="none" font-family="sans-serif" dy="1.5625" font-size="25" fill="#FFFFFF"/><text text-anchor="middle" pointer-events="none" y="5" font-size="10px" fill="#FFFFFF" font-family="sans-serif"> unclear</text></g><g class="node" transform="translate(17.71848471559374,-24.25149038068441)"><circle class="outline" cx="0" cy="0" r="25" fill="#68BDF6" stroke="#5CA8DB" stroke-width="2px"/><text text-anchor="middle" pointer-events="none" font-family="sans-serif" dy="1.5625" font-size="25" fill="#FFFFFF"/><text text-anchor="middle" pointer-events="none" y="5" font-size="10px" fill="#FFFFFF" font-family="sans-serif"> unclear</text></g><g class="node" transform="translate(-46.959318317723216,217.26377483046952)"><circle class="outline" cx="0" cy="0" r="25" fill="#68BDF6" stroke="#5CA8DB" stroke-width="2px"/><text text-anchor="middle" pointer-events="none" font-family="sans-serif" dy="1.5625" font-size="25" fill="#FFFFFF"/><text text-anchor="middle" pointer-events="none" y="5" font-size="10px" fill="#FFFFFF" font-family="sans-serif"> unclear</text></g><g class="node" transform="translate(103.935507943787,-45.051796326501886)"><circle class="outline" cx="0" cy="0" r="25" fill="#68BDF6" stroke="#5CA8DB" stroke-width="2px"/><text text-anchor="middle" pointer-events="none" font-family="sans-serif" dy="1.5625" font-size="25" fill="#FFFFFF"/><text text-anchor="middle" pointer-events="none" y="5" font-size="10px" fill="#FFFFFF" font-family="sans-serif"> unclear</text></g><g class="node" transform="translate(51.35193908125901,-73.91919511183708)"><circle class="outline" cx="0" cy="0" r="25" fill="#68BDF6" stroke="#5CA8DB" stroke-width="2px"/><text text-anchor="middle" pointer-events="none" font-family="sans-serif" dy="1.5625" font-size="25" fill="#FFFFFF"/><text text-anchor="middle" pointer-events="none" y="5" font-size="10px" fill="#FFFFFF" font-family="sans-serif"> unclear</text></g><g class="node" transform="translate(-41.77212233892769,18.13498573688834)"><circle class="outline" cx="0" cy="0" r="25" fill="#68BDF6" stroke="#5CA8DB" stroke-width="2px"/><text text-anchor="middle" pointer-events="none" font-family="sans-serif" dy="1.5625" font-size="25" fill="#FFFFFF"/><text text-anchor="middle" pointer-events="none" y="5" font-size="10px" fill="#FFFFFF" font-family="sans-serif"> unclear</text></g><g class="node" transform="translate(-39.637545281503364,-41.80981802665698)"><circle class="outline" cx="0" cy="0" r="25" fill="#68BDF6" stroke="#5CA8DB" stroke-width="2px"/><text text-anchor="middle" pointer-events="none" font-family="sans-serif" dy="1.5625" font-size="25" fill="#FFFFFF"/><text text-anchor="middle" pointer-events="none" y="5" font-size="10px" fill="#FFFFFF" font-family="sans-serif"> unclear</text></g><g class="node" transform="translate(-89.0022124423916,110.77113952208819)"><circle class="outline" cx="0" cy="0" r="25" fill="#68BDF6" stroke="#5CA8DB" stroke-width="2px"/><text text-anchor="middle" pointer-events="none" font-family="sans-serif" dy="1.5625" font-size="25" fill="#FFFFFF"/><text text-anchor="middle" pointer-events="none" y="5" font-size="10px" fill="#FFFFFF" font-family="sans-serif"> unclear</text></g><g class="node" transform="translate(-92.0214389707058,50.85641142173713)"><circle class="outline" cx="0" cy="0" r="25" fill="#68BDF6" stroke="#5CA8DB" stroke-width="2px"/><text text-anchor="middle" pointer-events="none" font-family="sans-serif" dy="1.5625" font-size="25" fill="#FFFFFF"/><text text-anchor="middle" pointer-events="none" y="5" font-size="10px" fill="#FFFFFF" font-family="sans-serif"> unclear</text></g></g></svg>